# xmcd
#
# Track frame offsets: 
#        150
#        13753
#        29130
#        46817
#        58868
#        75787
#        99976
#        113537
#        131514
#        149289
#        167530
#        184519
#
# Disc length: 2708 seconds
#
# Revision: 1
# Processed by: cddbd v1.5.2PL0 Copyright (c) Steve Scherf et al.
# Submitted via: ExactAudioCopy v0.99pb4
#
DISCID=8f0a920c
DTITLE=Jeff Klein - The Hustler
DYEAR=2005
DGENRE=Alternative
TTITLE0=The Hustler (featuring Ani Difranco)
TTITLE1=The 19th Hole
TTITLE2=Nearly Motionless
TTITLE3=Suzanne (featuring Dave Pirner)
TTITLE4=Ironside
TTITLE5=Stripped
TTITLE6=All I Want
TTITLE7=Cobalt Hue (featuring Greg Dulli)
TTITLE8=Pity (featuring Ani Difranco)
TTITLE9=Put You To Sleep
TTITLE10=The Red Lantern (featuring Dave Pirner)
TTITLE11=Nobody's Favorite Girl (featuring Greg Dulli)
EXTD=
EXTT0=
EXTT1=
EXTT2=
EXTT3=
EXTT4=
EXTT5=
EXTT6=
EXTT7=
EXTT8=
EXTT9=
EXTT10=
EXTT11=
PLAYORDER=
